<svg width="378" height="399.99999999999994" xmlns="http://www.w3.org/2000/svg">
 <g>
  <title>Layer 1</title>
  <path stroke="null" id="svg_9" d="m332.24292,69.47021a11.71771,11.71771 0 0 1 11.71771,0l42.40407,24.482a11.71771,11.71771 0 0 1 5.85885,10.14783l0,48.96401a11.71771,11.71771 0 0 1 -5.85885,10.14783l-42.40407,24.482a11.71771,11.71771 0 0 1 -11.71771,0l-42.40407,-24.482a11.71771,11.71771 0 0 1 -5.85885,-10.14783l0,-48.96401a11.71771,11.71771 0 0 1 5.85885,-10.14783" fill="#ffffff77" transform="rotate(30 338.102 128.582)"/>
  <path stroke="null" id="svg_1" d="m254.24292,178.47021a11.71771,11.71771 0 0 1 11.71771,0l42.40407,24.482a11.71771,11.71771 0 0 1 5.85885,10.14783l0,48.96401a11.71771,11.71771 0 0 1 -5.85885,10.14783l-42.40407,24.482a11.71771,11.71771 0 0 1 -11.71771,0l-42.40407,-24.482a11.71771,11.71771 0 0 1 -5.85885,-10.14783l0,-48.96401a11.71771,11.71771 0 0 1 5.85885,-10.14783" fill="#00000077" transform="rotate(30 260.102 237.582)"/>
  <path stroke="null" id="svg_1" fill="#ffffff77" transform="rotate(30 333.102 123.582)"/>
  <path transform="rotate(30 183.275 158.149)" stroke="null" id="svg_2" d="m178.77219,112.7234a9.00465,9.00465 0 0 1 9.00465,0l32.58604,18.81356a9.00465,9.00465 0 0 1 4.50232,7.79825l0,37.62712a9.00465,9.00465 0 0 1 -4.50232,7.79825l-32.58604,18.81356a9.00465,9.00465 0 0 1 -9.00465,0l-32.58604,-18.81356a9.00465,9.00465 0 0 1 -4.50232,-7.79825l0,-37.62712a9.00465,9.00465 0 0 1 4.50232,-7.79825" fill="#00000077"/>
  <path id="svg_3" d="m105.81743,107.96743a6.85798,6.85798 0 0 1 6.85798,0l24.81765,14.32848a6.85798,6.85798 0 0 1 3.42898,5.93918l0,28.65696a6.85798,6.85798 0 0 1 -3.42898,5.93918l-24.81765,14.32848a6.85798,6.85798 0 0 1 -6.85798,0l-24.81765,-14.32848a6.85798,6.85798 0 0 1 -3.42898,-5.93918l0,-28.65696a6.85798,6.85798 0 0 1 3.42898,-5.93918" fill="#ffffff" stroke="null" transform="rotate(30 109.246 142.564)"/>
  <path id="svg_4" d="m319.51782,71.15576a9.82329,9.82329 0 0 1 9.82329,0l35.54849,20.52394a9.82329,9.82329 0 0 1 4.91163,8.5072l0,41.04786a9.82329,9.82329 0 0 1 -4.91163,8.5072l-35.54849,20.52394a9.82329,9.82329 0 0 1 -9.82329,0l-35.54849,-20.52394a9.82329,9.82329 0 0 1 -4.91163,-8.5072l0,-41.04786a9.82329,9.82329 0 0 1 4.91163,-8.5072" fill="#ffffff" stroke="null" transform="rotate(30 324.429 120.711)"/>
  <path id="svg_5" d="m328.42334,87.44685a3.13101,3.13101 0 0 1 3.13101,0l11.33051,6.54167a3.13101,3.13101 0 0 1 1.5655,2.71153l0,13.08335a3.13101,3.13101 0 0 1 -1.5655,2.71153l-11.33051,6.54167a3.13101,3.13101 0 0 1 -3.13101,0l-11.33051,-6.54167a3.13101,3.13101 0 0 1 -1.5655,-2.71153l0,-13.08335a3.13101,3.13101 0 0 1 1.5655,-2.71153" fill="#00000077" stroke="null" transform="rotate(30 329.989 103.242)"/>
  <path id="svg_6" d="m59.50346,45.44302a5.41495,5.41495 0 0 1 5.41495,0l19.59561,11.31354a5.41495,5.41495 0 0 1 2.70747,4.68948l0,22.62706a5.41495,5.41495 0 0 1 -2.70747,4.68948l-19.59561,11.31354a5.41495,5.41495 0 0 1 -5.41495,0l-19.59561,-11.31354a5.41495,5.41495 0 0 1 -2.70747,-4.68948l0,-22.62706a5.41495,5.41495 0 0 1 2.70747,-4.68948" fill="#ffffff" stroke="null" transform="rotate(30 62.2109 72.7596)"/>
  <path stroke="null" id="svg_7" d="m146.24292,21.47021a11.71771,11.71771 0 0 1 11.71771,0l42.40407,24.482a11.71771,11.71771 0 0 1 5.85885,10.14783l0,48.96401a11.71771,11.71771 0 0 1 -5.85885,10.14783l-42.40407,24.482a11.71771,11.71771 0 0 1 -11.71771,0l-42.40407,-24.482a11.71771,11.71771 0 0 1 -5.85885,-10.14783l0,-48.96401a11.71771,11.71771 0 0 1 5.85885,-10.14783" fill="#00000077" transform="rotate(30 152.102 80.582)"/>
  <path stroke="null" id="svg_10" d="m67.24292,97.47021a11.71771,11.71771 0 0 1 11.71771,0l42.40407,24.482a11.71771,11.71771 0 0 1 5.85885,10.14783l0,48.96401a11.71771,11.71771 0 0 1 -5.85885,10.14783l-42.40407,24.482a11.71771,11.71771 0 0 1 -11.71771,0l-42.40407,-24.482a11.71771,11.71771 0 0 1 -5.85885,-10.14783l0,-48.96401a11.71771,11.71771 0 0 1 5.85885,-10.14783" fill="#00000077" transform="rotate(30 73.102 156.582)"/>
  <path id="svg_8" d="m115.79989,137.85486a7.93663,7.93663 0 0 1 7.93663,0l28.72105,16.58211a7.93663,7.93663 0 0 1 3.9683,6.87332l0,33.16421a7.93663,7.93663 0 0 1 -3.9683,6.87331l-28.72105,16.58211a7.93663,7.93663 0 0 1 -7.93663,0l-28.72105,-16.58211a7.93663,7.93663 0 0 1 -3.9683,-6.87331l0,-33.16421a7.93663,7.93663 0 0 1 3.9683,-6.87332" fill="#ffffff55" stroke="null" transform="rotate(30 119.768 177.892)"/>
  <path transform="rotate(30 21.102 306.825)" stroke="null" id="svg_11" d="m15.24291,247.71346a11.71771,11.71771 0 0 1 11.71771,0l42.40407,24.482a11.71771,11.71771 0 0 1 5.85885,10.14783l0,48.96401a11.71771,11.71771 0 0 1 -5.85885,10.14783l-42.40407,24.482a11.71771,11.71771 0 0 1 -11.71771,0l-42.40407,-24.482a11.71771,11.71771 0 0 1 -5.85885,-10.14783l0,-48.96401a11.71771,11.71771 0 0 1 5.85885,-10.14783" fill="#00000077"/>
  <path transform="rotate(30 51.4533 350.087)" id="svg_12" d="m48.49693,320.2598a5.9127,5.9127 0 0 1 5.9127,0l21.3969,12.3535a5.9127,5.9127 0 0 1 2.95635,5.12055l0,24.70701a5.9127,5.9127 0 0 1 -2.95635,5.12055l-21.3969,12.3535a5.9127,5.9127 0 0 1 -5.9127,0l-21.3969,-12.3535a5.9127,5.9127 0 0 1 -2.95635,-5.12055l0,-24.70701a5.9127,5.9127 0 0 1 2.95635,-5.12055" fill="#00000077" stroke="null"/>
  <path id="svg_13" d="m304.46183,344.44253a4.27156,4.27156 0 0 1 4.27156,0l15.45791,8.92463a4.27156,4.27156 0 0 1 2.13578,3.69927l0,17.84926a4.27156,4.27156 0 0 1 -2.13578,3.69927l-15.45791,8.92463a4.27156,4.27156 0 0 1 -4.27156,0l-15.45791,-8.92463a4.27156,4.27156 0 0 1 -2.13578,-3.69927l0,-17.84926a4.27156,4.27156 0 0 1 2.13578,-3.69927" fill="#00000077" stroke="null" transform="rotate(30 306.598 365.991)"/>
  <path transform="rotate(30 300.747 365.893)" stroke="null" id="svg_14" d="m298.91251,347.38725a3.66839,3.66839 0 0 1 3.66839,0l13.27518,7.66443a3.66839,3.66839 0 0 1 1.83419,3.17692l0,15.32886a3.66839,3.66839 0 0 1 -1.83419,3.17692l-13.27518,7.66443a3.66839,3.66839 0 0 1 -3.66839,0l-13.27518,-7.66443a3.66839,3.66839 0 0 1 -1.83419,-3.17692l0,-15.32886a3.66839,3.66839 0 0 1 1.83419,-3.17692" fill="#ffffff77"/>
  <path transform="rotate(30 15.0317 227.744)" stroke="null" id="svg_15" d="m10.5289,182.31801a9.00465,9.00465 0 0 1 9.00465,0l32.58604,18.81356a9.00465,9.00465 0 0 1 4.50232,7.79825l0,37.62712a9.00465,9.00465 0 0 1 -4.50232,7.79825l-32.58604,18.81356a9.00465,9.00465 0 0 1 -9.00465,0l-32.58604,-18.81356a9.00465,9.00465 0 0 1 -4.50232,-7.79825l0,-37.62712a9.00465,9.00465 0 0 1 4.50232,-7.79825" fill="#00000077"/>
  <path stroke="null" transform="rotate(30 23.8155 93.9598)" id="svg_16" d="m19.3127,48.5342a9.00465,9.00465 0 0 1 9.00465,0l32.58604,18.81356a9.00465,9.00465 0 0 1 4.50232,7.79825l0,37.62712a9.00465,9.00465 0 0 1 -4.50232,7.79825l-32.58604,18.81356a9.00465,9.00465 0 0 1 -9.00465,0l-32.58604,-18.81356a9.00465,9.00465 0 0 1 -4.50232,-7.79825l0,-37.62712a9.00465,9.00465 0 0 1 4.50232,-7.79825" fill="#00000077"/>
  <path transform="rotate(30 0.849055 363.027)" id="svg_17" d="m-3.11906,322.99004a7.93663,7.93663 0 0 1 7.93663,0l28.72105,16.58211a7.93663,7.93663 0 0 1 3.9683,6.87332l0,33.16421a7.93663,7.93663 0 0 1 -3.9683,6.87331l-28.72105,16.58211a7.93663,7.93663 0 0 1 -7.93663,0l-28.72105,-16.58211a7.93663,7.93663 0 0 1 -3.9683,-6.87331l0,-33.16421a7.93663,7.93663 0 0 1 3.9683,-6.87332" fill="#ffffff55" stroke="null"/>
  <path transform="rotate(30 365.507 340.96)" stroke="null" id="svg_18" d="m359.64835,281.84861a11.71771,11.71771 0 0 1 11.71771,0l42.40407,24.482a11.71771,11.71771 0 0 1 5.85885,10.14783l0,48.96401a11.71771,11.71771 0 0 1 -5.85885,10.14783l-42.40407,24.482a11.71771,11.71771 0 0 1 -11.71771,0l-42.40407,-24.482a11.71771,11.71771 0 0 1 -5.85885,-10.14783l0,-48.96401a11.71771,11.71771 0 0 1 5.85885,-10.14783" fill="#00000077"/>
  <path transform="rotate(30 363.687 225.189)" id="svg_19" d="m359.71887,185.15217a7.93663,7.93663 0 0 1 7.93663,0l28.72105,16.58211a7.93663,7.93663 0 0 1 3.9683,6.87332l0,33.16421a7.93663,7.93663 0 0 1 -3.9683,6.87331l-28.72105,16.58211a7.93663,7.93663 0 0 1 -7.93663,0l-28.72105,-16.58211a7.93663,7.93663 0 0 1 -3.9683,-6.87331l0,-33.16421a7.93663,7.93663 0 0 1 3.9683,-6.87332" fill="#ffffff55" stroke="null"/>
 </g>

</svg>