<svg width="378" height="200" xmlns="http://www.w3.org/2000/svg">
 <g>
  <title>Layer 1</title>
  <path stroke="null" id="svg_9" d="m332.24292,69.47021a11.71771,11.71771 0 0 1 11.71771,0l42.40407,24.482a11.71771,11.71771 0 0 1 5.85885,10.14783l0,48.96401a11.71771,11.71771 0 0 1 -5.85885,10.14783l-42.40407,24.482a11.71771,11.71771 0 0 1 -11.71771,0l-42.40407,-24.482a11.71771,11.71771 0 0 1 -5.85885,-10.14783l0,-48.96401a11.71771,11.71771 0 0 1 5.85885,-10.14783" fill="#ffffff77" transform="rotate(30 338.102 128.582)"/>
  <path transform="rotate(30 45.102 141.582)" stroke="null" id="svg_1" d="m39.24292,82.47021a11.71771,11.71771 0 0 1 11.71771,0l42.40407,24.482a11.71771,11.71771 0 0 1 5.85885,10.14783l0,48.96401a11.71771,11.71771 0 0 1 -5.85885,10.14783l-42.40407,24.482a11.71771,11.71771 0 0 1 -11.71771,0l-42.40407,-24.482a11.71771,11.71771 0 0 1 -5.85885,-10.14783l0,-48.96401a11.71771,11.71771 0 0 1 5.85885,-10.14783" fill="#00000077"/>
  <path stroke="null" id="svg_1" fill="#ffffff77" transform="rotate(30 333.102 123.582)"/>
  <path transform="rotate(30 183.275 158.149)" stroke="null" id="svg_2" d="m178.77219,112.7234a9.00465,9.00465 0 0 1 9.00465,0l32.58604,18.81356a9.00465,9.00465 0 0 1 4.50232,7.79825l0,37.62712a9.00465,9.00465 0 0 1 -4.50232,7.79825l-32.58604,18.81356a9.00465,9.00465 0 0 1 -9.00465,0l-32.58604,-18.81356a9.00465,9.00465 0 0 1 -4.50232,-7.79825l0,-37.62712a9.00465,9.00465 0 0 1 4.50232,-7.79825" fill="#00000077"/>
  <path id="svg_3" d="m105.81743,107.96743a6.85798,6.85798 0 0 1 6.85798,0l24.81765,14.32848a6.85798,6.85798 0 0 1 3.42898,5.93918l0,28.65696a6.85798,6.85798 0 0 1 -3.42898,5.93918l-24.81765,14.32848a6.85798,6.85798 0 0 1 -6.85798,0l-24.81765,-14.32848a6.85798,6.85798 0 0 1 -3.42898,-5.93918l0,-28.65696a6.85798,6.85798 0 0 1 3.42898,-5.93918" fill="#ffffff" stroke="null" transform="rotate(30 109.246 142.564)"/>
  <path id="svg_4" d="m256.79989,97.85486a7.93663,7.93663 0 0 1 7.93663,0l28.72105,16.58211a7.93663,7.93663 0 0 1 3.9683,6.87331l0,33.16421a7.93663,7.93663 0 0 1 -3.9683,6.87331l-28.72105,16.58211a7.93663,7.93663 0 0 1 -7.93663,0l-28.72105,-16.58211a7.93663,7.93663 0 0 1 -3.9683,-6.87331l0,-33.16421a7.93663,7.93663 0 0 1 3.9683,-6.87331" fill="#ffffff" stroke="null" transform="rotate(30 260.768 137.892)"/>
  <path id="svg_5" d="m328.42334,87.44685a3.13101,3.13101 0 0 1 3.13101,0l11.33051,6.54167a3.13101,3.13101 0 0 1 1.5655,2.71153l0,13.08335a3.13101,3.13101 0 0 1 -1.5655,2.71153l-11.33051,6.54167a3.13101,3.13101 0 0 1 -3.13101,0l-11.33051,-6.54167a3.13101,3.13101 0 0 1 -1.5655,-2.71153l0,-13.08335a3.13101,3.13101 0 0 1 1.5655,-2.71153" fill="#00000077" stroke="null" transform="rotate(30 329.989 103.242)"/>
  <path id="svg_6" d="m59.50346,45.44302a5.41495,5.41495 0 0 1 5.41495,0l19.59561,11.31354a5.41495,5.41495 0 0 1 2.70747,4.68948l0,22.62706a5.41495,5.41495 0 0 1 -2.70747,4.68948l-19.59561,11.31354a5.41495,5.41495 0 0 1 -5.41495,0l-19.59561,-11.31354a5.41495,5.41495 0 0 1 -2.70747,-4.68948l0,-22.62706a5.41495,5.41495 0 0 1 2.70747,-4.68948" fill="#ffffff" stroke="null" transform="rotate(30 62.2109 72.7596)"/>
  <path stroke="null" id="svg_7" d="m146.24292,21.47021a11.71771,11.71771 0 0 1 11.71771,0l42.40407,24.482a11.71771,11.71771 0 0 1 5.85885,10.14783l0,48.96401a11.71771,11.71771 0 0 1 -5.85885,10.14783l-42.40407,24.482a11.71771,11.71771 0 0 1 -11.71771,0l-42.40407,-24.482a11.71771,11.71771 0 0 1 -5.85885,-10.14783l0,-48.96401a11.71771,11.71771 0 0 1 5.85885,-10.14783" fill="#00000077" transform="rotate(30 152.102 80.582)"/>
  <path id="svg_8" d="m91.79989,65.85486a7.93663,7.93663 0 0 1 7.93663,0l28.72105,16.58211a7.93663,7.93663 0 0 1 3.9683,6.87332l0,33.16421a7.93663,7.93663 0 0 1 -3.9683,6.87331l-28.72105,16.58211a7.93663,7.93663 0 0 1 -7.93663,0l-28.72105,-16.58211a7.93663,7.93663 0 0 1 -3.9683,-6.87331l0,-33.16421a7.93663,7.93663 0 0 1 3.9683,-6.87332" fill="#ffffff55" stroke="null" transform="rotate(30 95.768 105.892)"/>
 </g>

</svg>